<?xml version="1.0" encoding="utf-8"?>
<!-- Generator: Adobe Illustrator 22.0.1, SVG Export Plug-In . SVG Version: 6.00 Build 0)  -->
<svg version="1.1" id="Layer_1" xmlns="http://www.w3.org/2000/svg" xmlns:xlink="http://www.w3.org/1999/xlink" x="0px" y="0px"
	 viewBox="0 0 2000 900" style="enable-background:new 0 0 2000 900;" xml:space="preserve">
<style type="text/css">
	.st0{fill:#33162E;}
	.st1{fill:url(#SVGID_1_);}
	.st2{fill:url(#SVGID_2_);}
	.st3{fill:url(#SVGID_3_);}
	.st4{fill:url(#SVGID_4_);}
	.st5{fill:url(#SVGID_5_);}
	.st6{fill:url(#SVGID_6_);}
	.st7{fill:url(#SVGID_7_);}
	.st8{fill:#60938B;}
	.st9{fill:url(#SVGID_8_);}
	.st10{fill:url(#SVGID_9_);}
	.st11{fill:url(#SVGID_10_);}
	.st12{fill:url(#SVGID_11_);}
	.st13{fill:url(#SVGID_12_);}
	.st14{fill:url(#SVGID_13_);}
	.st15{fill:url(#SVGID_14_);}
	.st16{fill:url(#SVGID_15_);}
	.st17{fill:url(#SVGID_16_);}
	.st18{fill:url(#SVGID_17_);}
	.st19{fill:url(#SVGID_18_);}
	.st20{fill:url(#SVGID_19_);}
	.st21{fill:url(#SVGID_20_);}
	.st22{fill:url(#SVGID_21_);}
	.st23{fill:url(#SVGID_22_);}
	.st24{fill:url(#SVGID_23_);}
	.st25{fill:url(#SVGID_24_);}
	.st26{fill:url(#SVGID_25_);}
	.st27{fill:url(#SVGID_26_);}
	.st28{fill:url(#SVGID_27_);}
	.st29{fill:url(#SVGID_28_);}
	.st30{fill:url(#SVGID_29_);}
	.st31{fill:url(#SVGID_30_);}
	.st32{fill:url(#SVGID_31_);}
	.st33{fill:url(#SVGID_32_);}
	.st34{fill:url(#SVGID_33_);}
	.st35{fill:url(#SVGID_34_);}
	.st36{fill:url(#SVGID_35_);}
	.st37{fill:url(#SVGID_36_);}
	.st38{fill:url(#SVGID_37_);}
	.st39{fill:url(#SVGID_38_);}
	.st40{fill:url(#SVGID_39_);}
	.st41{fill:url(#SVGID_40_);}
	.st42{fill:url(#SVGID_41_);}
	.st43{fill:url(#SVGID_42_);}
	.st44{fill:url(#SVGID_43_);}
	.st45{fill:url(#SVGID_44_);}
	.st46{fill:url(#SVGID_45_);}
	.st47{fill:url(#SVGID_46_);}
	.st48{fill:url(#SVGID_47_);}
	.st49{fill:url(#SVGID_48_);}
	.st50{fill:url(#SVGID_49_);}
	.st51{fill:url(#SVGID_50_);}
	.st52{fill:url(#SVGID_51_);}
	.st53{fill:url(#SVGID_52_);}
	.st54{fill:url(#SVGID_53_);}
	.st55{fill:url(#SVGID_54_);}
	.st56{fill:url(#SVGID_55_);}
	.st57{fill:url(#SVGID_56_);}
	.st58{fill:url(#SVGID_57_);}
	.st59{fill:url(#SVGID_58_);}
	.st60{fill:url(#SVGID_59_);}
	.st61{fill:url(#SVGID_60_);}
	.st62{fill:url(#SVGID_61_);}
	.st63{fill:url(#SVGID_62_);}
	.st64{fill:url(#SVGID_63_);}
	.st65{fill:url(#SVGID_64_);}
	.st66{fill:url(#SVGID_65_);}
	.st67{fill:url(#SVGID_66_);}
	.st68{fill:url(#SVGID_67_);}
	.st69{fill:url(#SVGID_68_);}
	.st70{fill:url(#SVGID_69_);}
	.st71{fill:url(#SVGID_70_);}
	.st72{fill:url(#SVGID_71_);}
</style>
<g>
	<path class="st0" d="M477.8,595.5l-45.7-97.2h32.1h32.2l21.5,58l45.4-58h31.2h31.3l-85.6,99.2l47,101.1h-32.8h-32.8l-21.8-60.9
		l-48.3,60.9h-32h-32.2L477.8,595.5z"/>
	<path class="st0" d="M657.7,498.3h24.8h24.8l-5.7,28.7l4-4.2c19.9-19.9,41.7-29.8,65.5-29.8c20.4,0,36.3,6.2,47.8,18.6
		c11.5,12.4,17.2,29.6,17.2,51.6c-0.1,5-0.5,10.7-1.2,16.9c-0.7,6.3-1.6,12.4-2.9,18.4c-6.3,30.2-19.5,55.3-39.6,75.4
		c-20.2,20.1-42.3,30.1-66.5,30.1c-24.3,0-41.5-9.5-51.5-28.4l-0.4-0.7l-21.1,102.2h-26.3h-26.5L657.7,498.3z M720.1,660.5
		c13.4,0,25.3-5.5,35.7-16.4c10.4-10.9,17.5-25.3,21.2-43.3c0.9-3.9,1.5-7.9,2-11.9c0.5-4,0.7-7.7,0.6-11.1c0-12.4-3-22-8.9-28.8
		c-6-6.8-14.4-10.2-25.3-10.2c-13,0-24.8,5.5-35.4,16.4c-10.6,10.9-17.6,24.9-21,42h0.2c-4.3,20.3-3.7,35.9,1.7,46.9
		C696.2,655,706,660.5,720.1,660.5z"/>
	<path class="st0" d="M899.1,704c-16.4,0-29.3-3.9-38.7-11.7c-9.4-7.8-14.1-18.6-14.1-32.5c0-2.2,0.2-4.7,0.5-7.6
		c0.3-2.8,0.8-5.6,1.4-8.3c3.4-16.7,11.7-30.7,24.7-42c13-11.3,29-18.2,47.9-20.8l44.6-6.3c4.2-0.6,8.1-1.7,11.8-3.1
		c4.7-1.8,8.2-4.5,10.7-8c2.5-3.5,3.6-7.6,3.5-12.2c-0.1-4.9-1.8-8.7-5-11.2c-4.5-3.6-12.8-5.3-24.7-5.3c-9.1,0-16.8,2.4-23.2,7.1
		c-6.4,4.7-11.4,11.8-14.9,21.1h-49.9c5.2-23,16.4-40.4,33.9-52.3c17.4-11.9,40.3-17.9,68.7-17.9c25.9,0,44.6,5,56.2,15.1
		c8.6,7.4,12.8,17.3,12.7,29.9c0.1,4.3-0.4,8.9-1.5,13.8L1020.8,661c-1.8,8.8-2.4,15.6-1.7,20.4c0.7,4.7,2.9,8,6.4,9.9v0.2l-1.5,7.2
		h-28.6H967v-0.2c-0.9-7.9-0.7-15.7,0.4-23.4C946.6,694.3,923.9,704,899.1,704z M976.5,625.7l5-24.3c-5,2.8-10.6,4.9-16.6,6.3
		l-21.4,4.2c-14,2.8-24,6.4-30.1,10.7c-6.1,4.3-10,10.6-11.7,18.8c-0.2,1.2-0.2,1.2,0,0c-0.2,1.2-0.4,2.5-0.6,3.7
		c-0.1,1.2-0.2,2.4-0.2,3.5c0,5.6,1.8,10,5.4,13.1c3.6,3.1,8.7,4.6,15.2,4.6c16.7,0,31.5-6.6,44.4-19.9c2.2-2.2,4.3-5.3,6.3-9.2
		C974.3,633.1,975.7,629.3,976.5,625.7z"/>
	<path class="st0" d="M1103,498.3h25.7h25.7l-5.9,28.7l7.4-8.3c16.7-17.2,36.9-25.8,60.7-25.8c21.6,0,37.2,6.1,46.9,18.3
		c9.7,12.2,12.3,29.1,7.7,50.7l-28.3,136.6h-26.3h-26.5l25.6-123.7c2.6-12.8,1.8-22.2-2.2-28.4c-4.1-6.1-11.6-9.2-22.7-9.2
		c-13.5,0-25,4.1-34.3,12.2c-9.4,8.2-15.5,19.5-18.5,34l-23.6,115.1h-26.3h-26.5L1103,498.3z"/>
	<path class="st0" d="M1439.5,558.3c0-9.3-2.2-15.9-6.6-19.8c-4.4-3.9-12.1-5.8-22.9-5.8c-9.9,0-17.9,1.5-24,4.6
		c-6.1,3.1-9.7,7.3-10.8,12.7c-1,4.7,1.1,8.7,6.3,12c5.1,3.2,14.5,6.4,28.2,9.8c30.2,7.4,50.2,15.6,59.9,24.7
		c7.5,6.8,11.2,15.7,11.2,26.9c0,4.1-0.5,8.4-1.5,13.1c-4.3,20.7-15.7,37.2-34.1,49.3c-18.5,12.2-41.4,18.2-68.7,18.2
		c-30.4,0-52.5-5.8-66.3-17.3c-11.2-9.4-16.8-22.8-16.9-40l0.9-12.2h54c-1.2,10.1,1.4,17.5,7.8,22.4c6.4,4.8,17,7.3,31.8,7.3
		c9.7,0,17.6-1.8,23.9-5.4c6.2-3.6,10-8.6,11.3-15c1-4.9-1.2-9-6.6-12.3c-5.5-3.3-15.7-6.8-30.6-10.3c-29.4-6.9-48.8-14.7-58.2-23.6
		c-6.9-6.5-10.3-15.1-10.3-25.8c0-4.2,0.5-8.6,1.5-13.3c4.2-20.1,14.8-36.1,31.8-47.9c17-11.8,37.9-17.7,62.7-17.7
		c28.7,0,49.6,5.5,62.8,16.6c10.4,8.7,15.6,20.8,15.6,36.3c0,3.8-0.4,8-1.1,12.5H1439.5z"/>
	<path class="st0" d="M1548.3,498.3h26.3h26.5l-41.4,200.3h-26.3h-26.5L1548.3,498.3z M1565.1,425.8h53.4l-9.9,48.2h-53.4
		L1565.1,425.8z"/>
	<path class="st0" d="M1635.1,498.3h29.4h29.4l11.1,147.7h0.1l73.8-147.7h27.9h27.9l-113.6,200.3h-27.6h-27.8L1635.1,498.3z"/>
</g>
<g>
	<linearGradient id="SVGID_1_" gradientUnits="userSpaceOnUse" x1="685.0778" y1="231.7258" x2="146.4514" y2="244.3253">
		<stop  offset="0" style="stop-color:#000000"/>
		<stop  offset="1" style="stop-color:#60938B"/>
	</linearGradient>
	<circle class="st1" cx="222.3" cy="242.6" r="14.5"/>
	<linearGradient id="SVGID_2_" gradientUnits="userSpaceOnUse" x1="686.2351" y1="281.2043" x2="147.6088" y2="293.8038">
		<stop  offset="0" style="stop-color:#000000"/>
		<stop  offset="1" style="stop-color:#60938B"/>
	</linearGradient>
	<circle class="st2" cx="194" cy="292.7" r="16.1"/>
	<linearGradient id="SVGID_3_" gradientUnits="userSpaceOnUse" x1="687.516" y1="335.9626" x2="148.8897" y2="348.562">
		<stop  offset="0" style="stop-color:#000000"/>
		<stop  offset="1" style="stop-color:#60938B"/>
	</linearGradient>
	<circle class="st3" cx="175.1" cy="347.9" r="15.2"/>
	<linearGradient id="SVGID_4_" gradientUnits="userSpaceOnUse" x1="688.8483" y1="392.9151" x2="150.2219" y2="405.5146">
		<stop  offset="0" style="stop-color:#000000"/>
		<stop  offset="1" style="stop-color:#60938B"/>
	</linearGradient>
	<circle class="st4" cx="165.7" cy="405.2" r="14.5"/>
	<linearGradient id="SVGID_5_" gradientUnits="userSpaceOnUse" x1="690.1809" y1="449.8856" x2="151.5546" y2="462.485">
		<stop  offset="0" style="stop-color:#000000"/>
		<stop  offset="1" style="stop-color:#60938B"/>
	</linearGradient>
	<circle class="st5" cx="166.1" cy="462.1" r="13.1"/>
	<linearGradient id="SVGID_6_" gradientUnits="userSpaceOnUse" x1="691.5364" y1="507.8353" x2="152.9101" y2="520.4348">
		<stop  offset="0" style="stop-color:#000000"/>
		<stop  offset="1" style="stop-color:#60938B"/>
	</linearGradient>
	<circle class="st6" cx="177.4" cy="519.9" r="11.8"/>
	<linearGradient id="SVGID_7_" gradientUnits="userSpaceOnUse" x1="692.8309" y1="563.1737" x2="154.2046" y2="575.7731">
		<stop  offset="0" style="stop-color:#000000"/>
		<stop  offset="1" style="stop-color:#60938B"/>
	</linearGradient>
	<circle class="st7" cx="197" cy="574.8" r="10.6"/>
	<circle class="st8" cx="227.6" cy="622" r="9.5"/>
	<circle class="st8" cx="264.6" cy="666" r="8.6"/>
	<circle class="st8" cx="309" cy="704" r="7.7"/>
	<circle class="st8" cx="361.5" cy="733.3" r="6.9"/>
	<circle class="st8" cx="416" cy="751.4" r="6.2"/>
	<linearGradient id="SVGID_8_" gradientUnits="userSpaceOnUse" x1="684.0455" y1="187.596" x2="145.4191" y2="200.1954">
		<stop  offset="0" style="stop-color:#000000"/>
		<stop  offset="1" style="stop-color:#60938B"/>
	</linearGradient>
	<circle class="st9" cx="259.1" cy="197.5" r="13.1"/>
	<linearGradient id="SVGID_9_" gradientUnits="userSpaceOnUse" x1="683.1682" y1="150.0924" x2="144.5419" y2="162.6918">
		<stop  offset="0" style="stop-color:#000000"/>
		<stop  offset="1" style="stop-color:#60938B"/>
	</linearGradient>
	<circle class="st10" cx="302.4" cy="159" r="11.2"/>
	<linearGradient id="SVGID_10_" gradientUnits="userSpaceOnUse" x1="682.4838" y1="120.8329" x2="143.8574" y2="133.4323">
		<stop  offset="0" style="stop-color:#000000"/>
		<stop  offset="1" style="stop-color:#60938B"/>
	</linearGradient>
	<circle class="st11" cx="352.6" cy="128.6" r="9.6"/>
	<linearGradient id="SVGID_11_" gradientUnits="userSpaceOnUse" x1="682.0651" y1="102.9355" x2="143.4388" y2="115.5349">
		<stop  offset="0" style="stop-color:#000000"/>
		<stop  offset="1" style="stop-color:#60938B"/>
	</linearGradient>
	<circle class="st12" cx="406.4" cy="109.4" r="8.2"/>
	<linearGradient id="SVGID_12_" gradientUnits="userSpaceOnUse" x1="681.8373" y1="93.1973" x2="143.211" y2="105.7967">
		<stop  offset="0" style="stop-color:#000000"/>
		<stop  offset="1" style="stop-color:#60938B"/>
	</linearGradient>
	<circle class="st13" cx="463.8" cy="98.3" r="7.3"/>
	<linearGradient id="SVGID_13_" gradientUnits="userSpaceOnUse" x1="681.8476" y1="93.6384" x2="143.2213" y2="106.2378">
		<stop  offset="0" style="stop-color:#000000"/>
		<stop  offset="1" style="stop-color:#60938B"/>
	</linearGradient>
	<circle class="st14" cx="520.7" cy="97.4" r="6.6"/>
	<linearGradient id="SVGID_14_" gradientUnits="userSpaceOnUse" x1="682.0916" y1="104.0682" x2="143.4653" y2="116.6677">
		<stop  offset="0" style="stop-color:#000000"/>
		<stop  offset="1" style="stop-color:#60938B"/>
	</linearGradient>
	<circle class="st15" cx="578.2" cy="106.5" r="5.9"/>
	<linearGradient id="SVGID_15_" gradientUnits="userSpaceOnUse" x1="682.5639" y1="124.2595" x2="143.9376" y2="136.8589">
		<stop  offset="0" style="stop-color:#000000"/>
		<stop  offset="1" style="stop-color:#60938B"/>
	</linearGradient>
	<circle class="st16" cx="633.2" cy="125.4" r="5.3"/>
	<linearGradient id="SVGID_16_" gradientUnits="userSpaceOnUse" x1="684.8771" y1="223.1497" x2="146.2508" y2="235.7492">
		<stop  offset="0" style="stop-color:#000000"/>
		<stop  offset="1" style="stop-color:#60938B"/>
	</linearGradient>
	<circle class="st17" cx="294.8" cy="232.3" r="12.9"/>
	<linearGradient id="SVGID_17_" gradientUnits="userSpaceOnUse" x1="684.1416" y1="191.7053" x2="145.5153" y2="204.3047">
		<stop  offset="0" style="stop-color:#000000"/>
		<stop  offset="1" style="stop-color:#60938B"/>
	</linearGradient>
	<circle class="st18" cx="332.3" cy="199.9" r="12.9"/>
	<linearGradient id="SVGID_18_" gradientUnits="userSpaceOnUse" x1="683.5584" y1="166.7757" x2="144.9321" y2="179.3751">
		<stop  offset="0" style="stop-color:#000000"/>
		<stop  offset="1" style="stop-color:#60938B"/>
	</linearGradient>
	<circle class="st19" cx="375.4" cy="174" r="11.6"/>
	<linearGradient id="SVGID_19_" gradientUnits="userSpaceOnUse" x1="683.17" y1="150.1708" x2="144.5437" y2="162.7703">
		<stop  offset="0" style="stop-color:#000000"/>
		<stop  offset="1" style="stop-color:#60938B"/>
	</linearGradient>
	<circle class="st20" cx="420.9" cy="156.3" r="10.5"/>
	<linearGradient id="SVGID_20_" gradientUnits="userSpaceOnUse" x1="682.9891" y1="142.4373" x2="144.3628" y2="155.0367">
		<stop  offset="0" style="stop-color:#000000"/>
		<stop  offset="1" style="stop-color:#60938B"/>
	</linearGradient>
	<circle class="st21" cx="468.2" cy="147.5" r="9.4"/>
	<linearGradient id="SVGID_21_" gradientUnits="userSpaceOnUse" x1="682.9657" y1="141.4352" x2="144.3394" y2="154.0347">
		<stop  offset="0" style="stop-color:#000000"/>
		<stop  offset="1" style="stop-color:#60938B"/>
	</linearGradient>
	<circle class="st22" cx="518.2" cy="145.3" r="8"/>
	<linearGradient id="SVGID_22_" gradientUnits="userSpaceOnUse" x1="683.1985" y1="151.389" x2="144.5722" y2="163.9885">
		<stop  offset="0" style="stop-color:#000000"/>
		<stop  offset="1" style="stop-color:#60938B"/>
	</linearGradient>
	<circle class="st23" cx="568" cy="154.1" r="7.2"/>
	<linearGradient id="SVGID_23_" gradientUnits="userSpaceOnUse" x1="683.6174" y1="169.2951" x2="144.9911" y2="181.8945">
		<stop  offset="0" style="stop-color:#000000"/>
		<stop  offset="1" style="stop-color:#60938B"/>
	</linearGradient>
	<circle class="st24" cx="613.2" cy="170.9" r="6.5"/>
	<linearGradient id="SVGID_24_" gradientUnits="userSpaceOnUse" x1="684.1549" y1="192.274" x2="145.5286" y2="204.8734">
		<stop  offset="0" style="stop-color:#000000"/>
		<stop  offset="1" style="stop-color:#60938B"/>
	</linearGradient>
	<circle class="st25" cx="657" cy="192.9" r="5.8"/>
	<linearGradient id="SVGID_25_" gradientUnits="userSpaceOnUse" x1="685.772" y1="261.4085" x2="147.1458" y2="274.008">
		<stop  offset="0" style="stop-color:#000000"/>
		<stop  offset="1" style="stop-color:#60938B"/>
	</linearGradient>
	<circle class="st26" cx="263.3" cy="271.3" r="11.6"/>
	<linearGradient id="SVGID_26_" gradientUnits="userSpaceOnUse" x1="686.716" y1="301.7621" x2="148.0897" y2="314.3615">
		<stop  offset="0" style="stop-color:#000000"/>
		<stop  offset="1" style="stop-color:#60938B"/>
	</linearGradient>
	<circle class="st27" cx="240.4" cy="312.2" r="10.5"/>
	<linearGradient id="SVGID_27_" gradientUnits="userSpaceOnUse" x1="687.8582" y1="350.5919" x2="149.2319" y2="363.1913">
		<stop  offset="0" style="stop-color:#000000"/>
		<stop  offset="1" style="stop-color:#60938B"/>
	</linearGradient>
	<circle class="st28" cx="223.5" cy="361.5" r="8.9"/>
	<linearGradient id="SVGID_28_" gradientUnits="userSpaceOnUse" x1="688.918" y1="395.896" x2="150.2917" y2="408.4955">
		<stop  offset="0" style="stop-color:#000000"/>
		<stop  offset="1" style="stop-color:#60938B"/>
	</linearGradient>
	<circle class="st29" cx="215.2" cy="407" r="7.6"/>
	<linearGradient id="SVGID_29_" gradientUnits="userSpaceOnUse" x1="690.1312" y1="447.7611" x2="151.5049" y2="460.3605">
		<stop  offset="0" style="stop-color:#000000"/>
		<stop  offset="1" style="stop-color:#60938B"/>
	</linearGradient>
	<circle class="st30" cx="215.4" cy="458.9" r="6.9"/>
	<linearGradient id="SVGID_30_" gradientUnits="userSpaceOnUse" x1="691.2413" y1="495.2198" x2="152.615" y2="507.8193">
		<stop  offset="0" style="stop-color:#000000"/>
		<stop  offset="1" style="stop-color:#60938B"/>
	</linearGradient>
	<circle class="st31" cx="225.5" cy="506.1" r="6.2"/>
	<linearGradient id="SVGID_31_" gradientUnits="userSpaceOnUse" x1="692.3289" y1="541.7123" x2="153.7026" y2="554.3118">
		<stop  offset="0" style="stop-color:#000000"/>
		<stop  offset="1" style="stop-color:#60938B"/>
	</linearGradient>
	<circle class="st32" cx="242.7" cy="552.2" r="5.6"/>
	<circle class="st8" cx="268.2" cy="594.8" r="5"/>
	<linearGradient id="SVGID_32_" gradientUnits="userSpaceOnUse" x1="684.146" y1="191.8934" x2="145.5197" y2="204.4928">
		<stop  offset="0" style="stop-color:#000000"/>
		<stop  offset="1" style="stop-color:#60938B"/>
	</linearGradient>
	<circle class="st33" cx="432.4" cy="197.8" r="11"/>
	<linearGradient id="SVGID_33_" gradientUnits="userSpaceOnUse" x1="683.9662" y1="184.2069" x2="145.3399" y2="196.8063">
		<stop  offset="0" style="stop-color:#000000"/>
		<stop  offset="1" style="stop-color:#60938B"/>
	</linearGradient>
	<circle class="st34" cx="475.1" cy="189.1" r="10.4"/>
	<linearGradient id="SVGID_34_" gradientUnits="userSpaceOnUse" x1="684.4764" y1="206.018" x2="145.8501" y2="218.6175">
		<stop  offset="0" style="stop-color:#000000"/>
		<stop  offset="1" style="stop-color:#60938B"/>
	</linearGradient>
	<circle class="st35" cx="392.7" cy="212.8" r="9.4"/>
	<linearGradient id="SVGID_35_" gradientUnits="userSpaceOnUse" x1="684.9323" y1="225.5092" x2="146.306" y2="238.1086">
		<stop  offset="0" style="stop-color:#000000"/>
		<stop  offset="1" style="stop-color:#60938B"/>
	</linearGradient>
	<circle class="st36" cx="357.3" cy="233.2" r="8.4"/>
	<linearGradient id="SVGID_36_" gradientUnits="userSpaceOnUse" x1="685.5854" y1="253.4311" x2="146.9592" y2="266.0305">
		<stop  offset="0" style="stop-color:#000000"/>
		<stop  offset="1" style="stop-color:#60938B"/>
	</linearGradient>
	<circle class="st37" cx="324.8" cy="261.9" r="7.6"/>
	<linearGradient id="SVGID_37_" gradientUnits="userSpaceOnUse" x1="686.3204" y1="284.8525" x2="147.6942" y2="297.452">
		<stop  offset="0" style="stop-color:#000000"/>
		<stop  offset="1" style="stop-color:#60938B"/>
	</linearGradient>
	<circle class="st38" cx="300" cy="293.9" r="6.8"/>
	<linearGradient id="SVGID_38_" gradientUnits="userSpaceOnUse" x1="687.1713" y1="321.2282" x2="148.545" y2="333.8276">
		<stop  offset="0" style="stop-color:#000000"/>
		<stop  offset="1" style="stop-color:#60938B"/>
	</linearGradient>
	<circle class="st39" cx="277" cy="330.8" r="6.2"/>
	<linearGradient id="SVGID_39_" gradientUnits="userSpaceOnUse" x1="688.0895" y1="360.4774" x2="149.4632" y2="373.0768">
		<stop  offset="0" style="stop-color:#000000"/>
		<stop  offset="1" style="stop-color:#60938B"/>
	</linearGradient>
	<circle class="st40" cx="264.3" cy="370.4" r="5.5"/>
	<linearGradient id="SVGID_40_" gradientUnits="userSpaceOnUse" x1="683.9878" y1="185.1319" x2="145.3615" y2="197.7314">
		<stop  offset="0" style="stop-color:#000000"/>
		<stop  offset="1" style="stop-color:#60938B"/>
	</linearGradient>
	<circle class="st41" cx="514.7" cy="189.1" r="9.4"/>
	<linearGradient id="SVGID_41_" gradientUnits="userSpaceOnUse" x1="684.1634" y1="192.6373" x2="145.5371" y2="205.2368">
		<stop  offset="0" style="stop-color:#000000"/>
		<stop  offset="1" style="stop-color:#60938B"/>
	</linearGradient>
	<circle class="st42" cx="555" cy="195.7" r="8.4"/>
	<linearGradient id="SVGID_42_" gradientUnits="userSpaceOnUse" x1="688.6967" y1="202.0259" x2="150.0704" y2="214.6254">
		<stop  offset="0" style="stop-color:#000000"/>
		<stop  offset="1" style="stop-color:#60938B"/>
	</linearGradient>
	<circle class="st43" cx="600.1" cy="204.1" r="7.6"/>
	<linearGradient id="SVGID_43_" gradientUnits="userSpaceOnUse" x1="685.0258" y1="229.5032" x2="146.3994" y2="242.1026">
		<stop  offset="0" style="stop-color:#000000"/>
		<stop  offset="1" style="stop-color:#60938B"/>
	</linearGradient>
	<circle class="st44" cx="633.6" cy="230.7" r="6.8"/>
	<linearGradient id="SVGID_44_" gradientUnits="userSpaceOnUse" x1="685.6047" y1="254.2539" x2="146.9784" y2="266.8534">
		<stop  offset="0" style="stop-color:#000000"/>
		<stop  offset="1" style="stop-color:#60938B"/>
	</linearGradient>
	<circle class="st45" cx="665.2" cy="254.7" r="6.2"/>
	<linearGradient id="SVGID_45_" gradientUnits="userSpaceOnUse" x1="686.3939" y1="287.9927" x2="147.7676" y2="300.5922">
		<stop  offset="0" style="stop-color:#000000"/>
		<stop  offset="1" style="stop-color:#60938B"/>
	</linearGradient>
	<circle class="st46" cx="691.8" cy="287.9" r="5.5"/>
	<linearGradient id="SVGID_46_" gradientUnits="userSpaceOnUse" x1="684.9783" y1="227.476" x2="146.352" y2="240.0755">
		<stop  offset="0" style="stop-color:#000000"/>
		<stop  offset="1" style="stop-color:#60938B"/>
	</linearGradient>
	<circle class="st47" cx="546.9" cy="230.7" r="8.9"/>
	<linearGradient id="SVGID_47_" gradientUnits="userSpaceOnUse" x1="685.2516" y1="239.1606" x2="146.6253" y2="251.7601">
		<stop  offset="0" style="stop-color:#000000"/>
		<stop  offset="1" style="stop-color:#60938B"/>
	</linearGradient>
	<circle class="st48" cx="581.3" cy="241.6" r="8.4"/>
	<linearGradient id="SVGID_48_" gradientUnits="userSpaceOnUse" x1="685.6774" y1="257.3624" x2="147.0511" y2="269.9619">
		<stop  offset="0" style="stop-color:#000000"/>
		<stop  offset="1" style="stop-color:#60938B"/>
	</linearGradient>
	<circle class="st49" cx="612.6" cy="259.1" r="7.5"/>
	<linearGradient id="SVGID_49_" gradientUnits="userSpaceOnUse" x1="686.2274" y1="280.8722" x2="147.601" y2="293.4717">
		<stop  offset="0" style="stop-color:#000000"/>
		<stop  offset="1" style="stop-color:#60938B"/>
	</linearGradient>
	<circle class="st50" cx="640.4" cy="281.9" r="6.8"/>
	<linearGradient id="SVGID_50_" gradientUnits="userSpaceOnUse" x1="686.8667" y1="308.2035" x2="148.2404" y2="320.8029">
		<stop  offset="0" style="stop-color:#000000"/>
		<stop  offset="1" style="stop-color:#60938B"/>
	</linearGradient>
	<circle class="st51" cx="663.9" cy="308.7" r="6.1"/>
	<linearGradient id="SVGID_51_" gradientUnits="userSpaceOnUse" x1="687.564" y1="338.0156" x2="148.9377" y2="350.6151">
		<stop  offset="0" style="stop-color:#000000"/>
		<stop  offset="1" style="stop-color:#60938B"/>
	</linearGradient>
	<circle class="st52" cx="681.9" cy="338.1" r="5.5"/>
	<linearGradient id="SVGID_52_" gradientUnits="userSpaceOnUse" x1="684.7997" y1="219.8397" x2="146.1734" y2="232.4392">
		<stop  offset="0" style="stop-color:#000000"/>
		<stop  offset="1" style="stop-color:#60938B"/>
	</linearGradient>
	<circle class="st53" cx="512.5" cy="223.9" r="8"/>
	<linearGradient id="SVGID_53_" gradientUnits="userSpaceOnUse" x1="684.827" y1="221.009" x2="146.2007" y2="233.6085">
		<stop  offset="0" style="stop-color:#000000"/>
		<stop  offset="1" style="stop-color:#60938B"/>
	</linearGradient>
	<circle class="st54" cx="476.2" cy="225.9" r="7.2"/>
	<linearGradient id="SVGID_54_" gradientUnits="userSpaceOnUse" x1="684.9561" y1="226.5271" x2="146.3298" y2="239.1265">
		<stop  offset="0" style="stop-color:#000000"/>
		<stop  offset="1" style="stop-color:#60938B"/>
	</linearGradient>
	<circle class="st55" cx="442.6" cy="232.2" r="6.5"/>
	<linearGradient id="SVGID_55_" gradientUnits="userSpaceOnUse" x1="685.2387" y1="238.6082" x2="146.6124" y2="251.2077">
		<stop  offset="0" style="stop-color:#000000"/>
		<stop  offset="1" style="stop-color:#60938B"/>
	</linearGradient>
	<circle class="st56" cx="407.5" cy="245.1" r="5.8"/>
	<linearGradient id="SVGID_56_" gradientUnits="userSpaceOnUse" x1="685.673" y1="257.1712" x2="147.0466" y2="269.7707">
		<stop  offset="0" style="stop-color:#000000"/>
		<stop  offset="1" style="stop-color:#60938B"/>
	</linearGradient>
	<circle class="st57" cx="377" cy="264.4" r="5.2"/>
	<linearGradient id="SVGID_57_" gradientUnits="userSpaceOnUse" x1="686.729" y1="302.3174" x2="148.1027" y2="314.9169">
		<stop  offset="0" style="stop-color:#000000"/>
		<stop  offset="1" style="stop-color:#60938B"/>
	</linearGradient>
	<circle class="st58" cx="619" cy="303.9" r="7.5"/>
	<linearGradient id="SVGID_58_" gradientUnits="userSpaceOnUse" x1="687.2786" y1="325.812" x2="148.6523" y2="338.4114">
		<stop  offset="0" style="stop-color:#000000"/>
		<stop  offset="1" style="stop-color:#60938B"/>
	</linearGradient>
	<circle class="st59" cx="638.4" cy="327" r="6.8"/>
	<linearGradient id="SVGID_59_" gradientUnits="userSpaceOnUse" x1="687.8933" y1="352.0911" x2="149.267" y2="364.6905">
		<stop  offset="0" style="stop-color:#000000"/>
		<stop  offset="1" style="stop-color:#60938B"/>
	</linearGradient>
	<circle class="st60" cx="654.4" cy="352.9" r="6.1"/>
	<linearGradient id="SVGID_60_" gradientUnits="userSpaceOnUse" x1="688.5574" y1="380.4803" x2="149.9311" y2="393.0797">
		<stop  offset="0" style="stop-color:#000000"/>
		<stop  offset="1" style="stop-color:#60938B"/>
	</linearGradient>
	<circle class="st61" cx="665.2" cy="381" r="5.5"/>
	<linearGradient id="SVGID_61_" gradientUnits="userSpaceOnUse" x1="689.2236" y1="408.9642" x2="150.5974" y2="421.5637">
		<stop  offset="0" style="stop-color:#000000"/>
		<stop  offset="1" style="stop-color:#60938B"/>
	</linearGradient>
	<circle class="st62" cx="670.6" cy="409.4" r="4.9"/>
	<linearGradient id="SVGID_62_" gradientUnits="userSpaceOnUse" x1="686.2787" y1="283.0705" x2="147.6525" y2="295.67">
		<stop  offset="0" style="stop-color:#000000"/>
		<stop  offset="1" style="stop-color:#60938B"/>
	</linearGradient>
	<circle class="st63" cx="595.9" cy="285.2" r="6.8"/>
	<linearGradient id="SVGID_63_" gradientUnits="userSpaceOnUse" x1="685.9166" y1="267.5857" x2="147.2903" y2="280.1852">
		<stop  offset="0" style="stop-color:#000000"/>
		<stop  offset="1" style="stop-color:#60938B"/>
	</linearGradient>
	<circle class="st64" cx="568.8" cy="270.3" r="6.1"/>
	<linearGradient id="SVGID_64_" gradientUnits="userSpaceOnUse" x1="685.6802" y1="257.4825" x2="147.0539" y2="270.082">
		<stop  offset="0" style="stop-color:#000000"/>
		<stop  offset="1" style="stop-color:#60938B"/>
	</linearGradient>
	<circle class="st65" cx="540.3" cy="260.9" r="5.5"/>
	<linearGradient id="SVGID_65_" gradientUnits="userSpaceOnUse" x1="688.7062" y1="386.8445" x2="150.0799" y2="399.444">
		<stop  offset="0" style="stop-color:#000000"/>
		<stop  offset="1" style="stop-color:#60938B"/>
	</linearGradient>
	<circle class="st66" cx="640.1" cy="388" r="6.1"/>
	<linearGradient id="SVGID_66_" gradientUnits="userSpaceOnUse" x1="688.1192" y1="361.7487" x2="149.4929" y2="374.3481">
		<stop  offset="0" style="stop-color:#000000"/>
		<stop  offset="1" style="stop-color:#60938B"/>
	</linearGradient>
	<circle class="st67" cx="630.7" cy="363.1" r="5.5"/>
	<linearGradient id="SVGID_67_" gradientUnits="userSpaceOnUse" x1="689.3045" y1="412.4194" x2="150.6782" y2="425.0189">
		<stop  offset="0" style="stop-color:#000000"/>
		<stop  offset="1" style="stop-color:#60938B"/>
	</linearGradient>
	<circle class="st68" cx="643.9" cy="413.5" r="6.4"/>
	<linearGradient id="SVGID_68_" gradientUnits="userSpaceOnUse" x1="689.9053" y1="438.1026" x2="151.2789" y2="450.702">
		<stop  offset="0" style="stop-color:#000000"/>
		<stop  offset="1" style="stop-color:#60938B"/>
	</linearGradient>
	<circle class="st69" cx="645.1" cy="439.1" r="6.1"/>
	<linearGradient id="SVGID_69_" gradientUnits="userSpaceOnUse" x1="690.496" y1="463.3546" x2="151.8696" y2="475.954">
		<stop  offset="0" style="stop-color:#000000"/>
		<stop  offset="1" style="stop-color:#60938B"/>
	</linearGradient>
	<circle class="st70" cx="641" cy="464.5" r="5.5"/>
	<linearGradient id="SVGID_70_" gradientUnits="userSpaceOnUse" x1="690.3557" y1="457.3608" x2="151.7294" y2="469.9603">
		<stop  offset="0" style="stop-color:#000000"/>
		<stop  offset="1" style="stop-color:#60938B"/>
	</linearGradient>
	<circle class="st71" cx="619.5" cy="459" r="5.5"/>
	<linearGradient id="SVGID_71_" gradientUnits="userSpaceOnUse" x1="690.8352" y1="477.8583" x2="152.2089" y2="490.4577">
		<stop  offset="0" style="stop-color:#000000"/>
		<stop  offset="1" style="stop-color:#60938B"/>
	</linearGradient>
	<circle class="st72" cx="611.7" cy="479.7" r="4.9"/>
</g>
</svg>
